<svg width="900" height="894" viewBox="0 0 900 894" fill="none" xmlns="http://www.w3.org/2000/svg">
<path d="M160.455 299H176.771L177.773 299.252C209.405 301.389 237.479 312.234 261.996 331.786C262.15 331.908 262.34 331.975 262.535 331.977C262.731 331.978 262.921 331.914 263.074 331.795C287.76 312.394 315.702 301.566 346.901 299.311C347.109 299.3 347.317 299.308 347.524 299.337C347.873 299.387 348.058 299.275 348.08 299H363.899L365.592 299.278C391.746 301.154 416.383 309.079 438.208 323.6C438.87 324.043 440.763 325.403 443.885 327.681C445.744 329.032 447.67 330.342 449.663 331.61C449.54 331.453 449.787 331.444 450.404 331.584C450.567 331.685 450.719 331.68 450.859 331.567C466.116 319.492 482.912 310.722 501.246 305.259C505.02 304.138 509.509 303.036 514.715 301.953C521.807 300.478 526.347 299.738 528.335 299.732C530.705 299.715 533.06 299.55 535.402 299.236C535.436 299.157 535.469 299.079 535.503 299H551.6L553.006 299.278C584.262 301.409 612.047 312.116 636.361 331.399C637.058 331.949 637.757 331.952 638.459 331.408C663.049 312.186 690.898 301.488 722.008 299.311C722.165 299.3 722.322 299.308 722.479 299.337C722.738 299.376 722.881 299.264 722.909 299H739.435C739.441 299.079 739.626 299.165 739.991 299.261C760.538 300.528 779.973 305.75 798.296 314.926C805.618 318.594 812.629 322.93 819.328 327.933C823.371 330.962 826.842 333.783 829.739 336.397C834.226 340.441 838.659 344.88 843.039 349.715C847.728 354.886 852.456 361.314 857.224 368.998C870.521 390.44 878.037 413.793 879.773 439.055L880 439.315V454.055C878.372 481.544 870.437 506.212 856.196 528.058C836.11 558.856 807.873 579.67 771.485 590.501C766.117 592.093 760.574 593.316 754.858 594.169C741.796 596.109 729.198 596.508 717.063 595.363C688.026 592.621 661.622 581.922 637.852 563.267C637.709 563.154 637.531 563.092 637.349 563.092C637.167 563.092 636.991 563.154 636.85 563.267C618.853 577.76 598.202 587.592 574.898 592.764C569.591 593.942 564.097 594.783 558.414 595.288C545.875 596.404 534.186 596.194 523.348 594.657C496.265 590.82 471.906 580.309 450.27 563.124C450.174 563.049 450.056 563.008 449.935 563.008C449.814 563.008 449.698 563.049 449.604 563.124C430.029 578.885 407.587 589.098 382.278 593.765C377.516 594.645 372.224 595.276 366.401 595.658C341.081 597.312 316.884 592.859 293.81 582.298C282.871 577.289 272.632 570.945 263.091 563.267C262.913 563.126 262.691 563.051 262.463 563.055C262.236 563.06 262.017 563.144 261.844 563.292C260.362 564.594 258.871 565.791 257.372 566.885C241.003 578.865 223.053 587.222 203.523 591.956C198.003 593.297 192.679 594.261 187.553 594.85C170.083 596.853 153.717 596.21 138.454 592.924C107.171 586.193 80.711 571.187 59.0748 547.905C55.4473 544.001 51.9236 539.674 48.5038 534.923C31.6014 511.484 22.1816 485.092 20.2443 455.746C20.1937 455.354 20.1123 455.093 20 454.964V440.089C20.2415 438.906 20.4015 437.706 20.4801 436.489C20.6261 434.284 20.7132 433.078 20.7412 432.871C24.2509 401.557 36.0657 374.133 56.1857 350.598C59.8357 346.33 63.7356 342.3 67.8854 338.508C93.7107 314.923 124.463 301.818 160.144 299.194C160.211 299.188 160.27 299.165 160.321 299.126C160.371 299.093 160.416 299.05 160.455 299ZM238.411 356.05C216.587 339.703 190.501 331.525 163.176 332.855C103.911 335.715 55.9246 383.595 53.9199 443.48C52.0163 500.479 91.7902 550.159 148.09 560.592C180.216 566.548 212.308 558.446 238.453 539.045C238.491 539.018 238.523 538.984 238.546 538.944C238.57 538.905 238.586 538.86 238.592 538.814C238.598 538.768 238.595 538.72 238.583 538.675C238.571 538.629 238.55 538.587 238.521 538.549C224.089 519.642 214.683 499.01 210.303 476.653C201.973 434.183 212.089 390.956 238.496 356.672C238.675 356.437 238.647 356.229 238.411 356.05ZM425.859 356.092C402.241 338.206 373.206 330.238 343.692 333.385C322.977 335.6 303.971 343.175 286.676 356.109C286.635 356.138 286.601 356.176 286.576 356.219C286.55 356.262 286.533 356.31 286.526 356.36C286.519 356.41 286.522 356.461 286.534 356.51C286.547 356.56 286.569 356.606 286.6 356.647C328.008 410.584 328.084 484.612 286.6 538.482C286.448 538.678 286.471 538.852 286.667 539.003C301.509 550.204 318.001 557.434 336.145 560.693C368.06 566.422 399.95 558.328 425.767 539.113C426.031 538.916 426.061 538.686 425.859 538.423C411.068 518.955 401.561 497.681 397.339 474.6C389.707 432.837 399.967 390.376 425.935 356.681C425.969 356.637 425.994 356.586 426.009 356.532C426.024 356.479 426.028 356.423 426.02 356.368C426.013 356.313 425.996 356.261 425.968 356.213C425.94 356.166 425.903 356.125 425.859 356.092ZM613.248 356.058C589.984 338.391 561.303 330.449 532.151 333.275C511.183 335.311 491.843 342.906 474.132 356.058C474.046 356.124 473.989 356.22 473.973 356.327C473.957 356.434 473.984 356.543 474.048 356.63C515.372 410.5 515.557 484.301 474.149 538.356C474.066 538.465 474.029 538.603 474.046 538.739C474.064 538.874 474.134 538.997 474.242 539.079C488.359 549.764 504.096 556.834 521.453 560.289C554.059 566.767 586.665 558.8 613.257 539.113C613.521 538.916 613.552 538.689 613.349 538.431C572.101 484.705 571.84 410.542 613.341 356.731C613.538 356.479 613.507 356.255 613.248 356.058ZM729.016 562.417C789.199 563.671 840.908 517.39 845.743 457.463C847.81 431.87 842.104 408.223 828.627 386.523C816.288 366.667 797.647 351.01 776.328 341.899C757.505 333.856 737.675 331.085 716.836 333.587C697.058 335.959 678.682 343.416 661.707 355.957C661.381 356.204 661.344 356.487 661.597 356.807C678.443 378.311 689.36 405.528 691.819 432.694C695.351 471.737 685.272 506.997 661.58 538.473C661.395 538.715 661.423 538.925 661.664 539.104C681.852 554.136 704.302 561.907 729.016 562.417ZM262.232 381.466C234.116 421.193 234.377 474.129 262.282 513.696C262.485 513.977 262.684 513.977 262.881 513.696C273.948 497.812 280.676 480.366 283.062 461.358C286.617 433.022 279.129 404.712 262.906 381.475C262.681 381.149 262.457 381.146 262.232 381.466ZM449.705 381.491C434.603 402.457 427.443 428.496 428.841 453.778C430.043 475.461 436.975 495.417 449.638 513.646C449.857 513.971 450.081 513.974 450.312 513.654C456.876 504.439 461.933 494.427 465.482 483.619C476.887 448.864 471.403 411.51 450.32 381.5C450.286 381.451 450.24 381.41 450.187 381.382C450.134 381.354 450.075 381.339 450.015 381.338C449.955 381.338 449.895 381.351 449.842 381.378C449.788 381.404 449.741 381.443 449.705 381.491ZM625.159 402.97C609.66 439.854 614.343 480.851 637.103 513.696C637.31 513.999 637.518 514.002 637.726 513.705C647.104 500.457 653.396 485.801 656.602 469.737C662.802 438.693 655.718 407.286 637.76 381.416C637.563 381.13 637.367 381.127 637.17 381.407C632.391 388.11 628.388 395.297 625.159 402.97Z" fill="black"/>
</svg>
