<svg width="900" height="894" viewBox="0 0 900 894" fill="none" xmlns="http://www.w3.org/2000/svg">
<path d="M473 311C681.864 311 851 371.786 851 447.003C851 522.191 681.861 583 473 583C264.164 583 95.0001 522.194 95 447.003C95 371.789 264.153 311 473 311ZM474.914 320.187C273.805 320.187 110.772 376.342 110.772 445.632C110.773 514.913 273.802 571.072 474.914 571.072C676.001 571.072 839.027 514.91 839.027 445.632C839.027 376.339 676.006 320.187 474.914 320.187ZM474.914 331.055C668.946 331.055 826.227 382.343 826.227 445.632C826.226 508.92 668.957 560.218 474.914 560.218C280.862 560.218 123.573 508.923 123.573 445.632C123.573 382.343 280.868 331.055 474.914 331.055ZM681.011 403.071C679.568 403.071 678.822 403.246 678.139 404.574C675.903 408.818 648.65 449.243 643.575 457.095C642.724 458.288 641.679 458.122 641.559 456.76C641.044 452.098 636.977 446.74 630.568 444.175C625.682 442.213 620.905 441.859 615.941 442.51C606.978 443.701 598.993 448.386 591.97 453.661C581.389 461.627 572.261 471.941 560.475 479.567C554.04 483.718 545.231 487.338 539.336 481.939C534.001 477.044 534.601 466.167 542.765 457.758C543.625 456.875 544.657 457.611 544.494 458.402C543.723 462.207 544.671 465.99 547.589 468.644C551.149 471.799 556.245 472.159 560.605 470.052C565.754 467.53 568.779 462.653 569.665 457.117C571.028 448.534 564.35 440.962 556.001 440.356C549.215 439.885 542.709 442.222 536.371 447.403C533.191 450.011 531.381 451.941 528.636 455.809C527.964 456.763 526.936 456.86 526.97 455.452C527.287 444.464 522.691 438.28 513.511 438.077C506.39 437.912 498.777 441.733 492.845 446.417C486.341 451.587 480.655 458.437 474.561 464.875C473.803 465.669 473.14 465.632 472.929 464.093C472.743 456.812 470.894 449.759 467.488 444.752C466.285 443.01 463.75 442.146 461.618 443.323C460.635 443.858 457.21 445.416 454.722 447.4C453.485 448.409 453.006 449.867 453.549 451.738C456.835 462.612 456.113 474.98 451.655 485.429C447.561 494.992 439.603 503.625 430.254 506.544C424.093 508.478 417.687 507.531 413.724 502.124C408.28 494.663 410.481 481.69 418.59 470.913C425.753 461.43 436.106 455.403 446.441 451.521C447.658 451.059 447.906 450.288 447.563 449.266C447.001 447.581 446.107 445.295 445.738 444.246C444.793 441.753 442.138 441.344 438.9 441.695C431.394 442.561 424.625 445.106 417.936 448.65C400.42 457.934 391.642 475.9 387.79 485.515C385.939 490.127 384.353 493.013 382.305 495.566C379.545 499.003 376.079 502.128 369.741 507.638C369.17 508.143 368.742 509.196 369.222 510.173C369.87 511.501 373.164 516.106 374.096 516.518C375.127 517.02 376.324 516.318 376.804 515.976C381.238 513.002 386.544 508.286 389.142 505.087C390.05 503.993 390.989 504.453 391.472 506.115C393.895 514.673 400.24 521.659 409.015 524.581C425.073 529.942 441.731 522.183 454.304 508.675C462.293 500.092 465.176 494.57 468.239 490.816C473.428 484.45 483.669 470.209 495.861 461.065C500.333 457.695 505.628 455.124 508.291 456.829C510.425 458.2 511.114 461.384 507.686 467.554C495.256 490.024 476.958 516.426 473.603 522.833C472.991 523.944 473.525 524.815 474.699 524.815C481.205 524.787 487.658 524.801 493.564 524.801C494.544 524.755 494.988 524.312 495.479 523.624C505.02 508.843 514.001 494.767 523.624 480.22C524.167 479.363 524.662 480.027 524.682 480.401C524.882 483.775 525.717 488.394 527.74 491.428C531.381 497.032 536.536 499.439 542.257 499.477C546.806 499.528 549.106 498.843 554.012 497.029C557.444 495.754 560.692 494.029 563.67 491.898C565.107 490.913 565.357 492.565 565.32 492.819C563.114 504.556 565.841 518.46 577.625 524.227C591.729 531.11 607.222 521.437 616.137 512.705C617.008 511.862 617.949 511.951 618.037 513.762C618.226 517.098 619.746 521.055 622.534 523.825C630.003 531.246 645.079 528.306 660.209 516.712C669.924 509.294 680.087 498.809 689.268 487.706C689.608 487.278 689.861 486.584 689.204 485.887C687.804 484.439 685.782 482.781 684.396 481.504C683.765 480.973 682.836 481.125 682.302 481.527C672.892 490.385 664.423 500.489 652.177 508.844C648.048 511.694 641.47 513.996 638.513 510.037C637.361 508.5 637.494 506.372 638.628 503.581C642.204 494.765 698.715 409.599 701.648 404.58L701.654 404.574C702.157 403.7 701.626 403.061 700.512 403.061C694.697 403.061 687.071 403.071 681.011 403.071ZM379.928 351.426C374.76 351.442 369.566 351.644 364.337 352.071C329.606 354.965 296.547 374.32 296.487 403.706C296.45 418.608 307.153 430.683 323.737 430.151C343.224 429.497 359.222 414.044 367.597 394.561C370.774 387.168 364.89 384.098 362.09 388.354C357.213 395.788 350.419 401.77 342.425 405.668C333.256 410.112 323.454 408.913 320.482 401.544C316.305 391.147 324.989 375.588 344.805 368.268C373.427 357.779 403.374 364.718 432.19 370.076C432.602 370.076 434.137 370.918 432.78 371.618C427.62 374.403 422.539 376.668 414.624 383.409C408.949 388.219 401.52 394.623 395.774 401.599C390.071 408.474 386.029 414.606 380.68 421.404C379.947 422.37 379.047 422.342 379.027 422.341C365.989 424.52 353.226 425.981 341.539 434.024C339.122 435.675 338.072 438.605 339.538 440.848C340.855 442.836 343.868 443.047 345.96 441.542C353.22 436.166 360.695 433.636 369.267 433.401C369.641 433.424 369.821 433.484 369.927 433.713C369.992 433.841 369.953 434.112 369.799 434.312C356.958 451.944 353.742 455.929 344.081 466.86C339.141 472.479 334.28 477.221 328.852 482.156C306.919 502.325 283.328 501.977 274.864 489.332C269.807 481.743 270.474 473.776 273.788 467.166C277.868 459.071 286.114 453.138 292.972 449.673C295.517 448.387 296.25 445.166 293.701 442.229C292.081 440.316 288.152 439.976 285.226 440.507C276.242 442.149 265.626 448.871 259.354 456.96C252.285 466.037 248.755 477.058 249.94 489.426C252.069 511.742 270.633 524.634 291.709 524.485C308.479 524.356 324.276 519.326 343.284 500.228C361.002 482.415 377.144 455.809 392.26 431.136C392.734 430.347 393.071 429.924 395.368 429.642C404.849 428.468 418.848 427.131 427.82 426.617C429.815 426.509 430.22 426.531 431.02 427.517C433.357 430.436 436.868 432.913 439.68 434.421C441.051 435.158 441.703 435.526 442.78 435.543C444.109 435.572 445.144 434.864 445.812 434.115C446.764 433.081 447.026 431.729 446.512 430.858C445.975 429.944 439.718 426.511 439.532 425.123C439.396 424.264 440.339 424.052 440.352 424.049C444.952 422.621 449.737 419.681 452.638 414.183C455.486 408.77 455.947 401.546 450.735 397.53C446.161 394.003 439.248 394.559 433.733 399.458C428.339 404.214 426.554 411.133 427.282 417.197C427.414 418.248 427.359 418.602 425.911 418.722C417.619 419.379 409.629 419.607 400.743 420.072C400.149 420.115 399.96 419.727 400.306 419.318C410.538 401.723 425.815 389.193 442.714 376.854C443.834 376.022 443.492 374.442 443.446 373.122C473.957 379.683 503.443 391.895 535.097 391.635C548.186 391.529 560.718 389.559 572.696 383.055C583.231 377.368 587.506 372.107 587.82 366.64C588.066 362.861 585.411 360.472 581.631 361.286C549.649 368.558 519.138 368.478 487.318 364.668C450.976 360.302 416.102 351.312 379.928 351.426ZM621.322 456.308C622.802 456.295 624.188 456.577 625.449 457.178C632.409 460.465 630.187 468.443 627.075 474.707C626.97 474.903 626.903 475.118 626.882 475.34C626.86 475.561 626.883 475.785 626.949 475.998C627.064 476.649 627.92 477.281 628.763 477.581C629.057 477.69 629.224 477.901 628.89 478.586C626.484 483.684 624.278 486.624 621.264 491.051C618.498 495.144 615.377 498.335 611.594 501.408C605.893 506.078 597.979 511.16 591.436 507.744C588.527 506.247 587.272 502.222 587.329 498.963C587.481 489.794 591.587 480.386 599.193 471.137C606.729 461.956 614.91 456.364 621.322 456.308ZM443.769 402.419C444.516 402.459 445.216 402.707 445.781 403.187C447.467 404.612 446.669 408.168 444.966 410.63C443.106 413.346 439.951 415.691 437.073 416.263C436.496 416.368 435.997 416.122 435.76 414.857C435.291 411.507 436.392 407.02 440.009 403.858C441.141 402.868 442.523 402.353 443.769 402.419Z" fill="black"/>
</svg>
